<svg xmlns="http://www.w3.org/2000/svg" xmlns:xlink="http://www.w3.org/1999/xlink" viewBox="0,0,256,256" width="64px" height="64px"><g fill="none" fill-rule="nonzero" stroke="none" stroke-width="1" stroke-linecap="butt" stroke-linejoin="miter" stroke-miterlimit="10" stroke-dasharray="" stroke-dashoffset="0" font-family="none" font-weight="none" font-size="none" text-anchor="none" style="mix-blend-mode: normal"><g transform="scale(4,4)"><path d="M46.243,46.89l2.021,6.746c0.478,1.753 2.286,2.786 4.039,2.308v0c1.753,-0.478 2.786,-2.286 2.308,-4.039l-2.021,-6.746" fill-opacity="0" fill="#008fef"></path><path d="M20.046,15.42v0c0.319,1.168 1.524,1.857 2.692,1.539l9.497,-2.681c1.168,-0.319 1.857,-1.524 1.539,-2.692v0c-0.319,-1.168 -1.524,-1.857 -2.692,-1.539l-9.497,2.681c-1.169,0.319 -1.858,1.524 -1.539,2.692z" fill="#ffffff"></path><path d="M44.817,46.75l0.457,1.58c0.511,1.96 -0.598,3.98 -2.488,4.51c-0.849,0.24 -1.707,0.14 -2.44,-0.23c-0.395,1.06 -1.244,1.91 -2.382,2.23c-1.89,0.53 -3.829,-0.62 -4.349,-2.58l-0.615,-2.135" fill-opacity="0" fill="#ffffff"></path><path d="M20.19,53.31l-1.83,0.5c-1.87,0.51 -3.76,0.21 -5.31,-0.68c-2.03,-1.16 -3.23,-3.36 -3.36,-5.69l-2.45,-28.32c-0.14,-2.41 1.41,-4.59 3.73,-5.26c0.47,-0.14 0.96,-0.21 1.44,-0.21c0.95,0 1.9,0.27 2.72,0.78l5.68,3.53l12.86,-3.51l2.63,-5.59c0.66,-1.41 1.93,-2.45 3.45,-2.82l0.32,-0.08c2.31,-0.56 4.71,0.52 5.81,2.62l12.78,25.42c1.2,2.28 1.18,5.08 -0.27,7.19c-0.91,1.31 -2.26,2.33 -3.92,2.78l-21.67,5.91" fill-opacity="0" fill="#ffffff"></path><path d="M43.07,40.937l-15.988,4.359c-3.273,0.892 -6.649,-1.038 -7.541,-4.31v0c-0.246,-0.902 -0.379,-4.786 -0.437,-7.034c-0.049,-1.909 1.025,-3.744 2.806,-4.431c0.167,-0.064 0.338,-0.12 0.513,-0.167l16.307,-4.749c0.18,-0.048 0.361,-0.086 0.543,-0.113c1.794,-0.271 3.55,0.704 4.486,2.259c1.217,2.024 3.349,5.646 3.614,6.618l0.007,0.027c0.893,3.273 -1.037,6.649 -4.31,7.541z" fill-opacity="0" fill="#ffffff"></path><path d="M25.455,46.516c-1.227,0 -2.438,-0.319 -3.532,-0.944c-1.656,-0.947 -2.845,-2.482 -3.347,-4.323c-0.209,-0.765 -0.367,-3.211 -0.472,-7.271c-0.062,-2.404 1.323,-4.571 3.445,-5.39c0.2,-0.077 0.404,-0.145 0.614,-0.2l16.287,-4.742c0.237,-0.063 0.455,-0.109 0.674,-0.143c2.137,-0.327 4.297,0.749 5.49,2.732c2.244,3.728 3.496,6.039 3.723,6.871c1.043,3.826 -1.206,7.76 -5.005,8.796v0l-15.987,4.358c-0.624,0.171 -1.259,0.256 -1.89,0.256zM39.863,25.448c-0.147,0 -0.294,0.011 -0.44,0.033c-0.147,0.021 -0.292,0.052 -0.435,0.091l-16.286,4.741c-0.16,0.044 -0.298,0.088 -0.432,0.14c-1.336,0.516 -2.206,1.911 -2.166,3.474c0.11,4.332 0.28,6.351 0.401,6.796c0.361,1.325 1.217,2.431 2.409,3.112c1.192,0.681 2.577,0.857 3.905,0.496l15.987,-4.358c2.734,-0.746 4.354,-3.578 3.608,-6.313c-0.138,-0.504 -1.127,-2.426 -3.514,-6.393c-0.675,-1.126 -1.856,-1.819 -3.037,-1.819zM43.07,40.938h0.01z" fill="#ffffff"></path><path d="M29.004,39.682v0c1.168,-0.319 1.857,-1.524 1.539,-2.692l-0.681,-2.497c-0.319,-1.168 -1.524,-1.857 -2.692,-1.539v0c-1.168,0.319 -1.857,1.524 -1.539,2.692l0.681,2.497c0.318,1.168 1.523,1.857 2.692,1.539z" fill="#ffffff"></path><path d="M39.327,36.867v0c1.168,-0.319 1.857,-1.524 1.539,-2.692l-0.681,-2.497c-0.319,-1.168 -1.524,-1.857 -2.692,-1.539v0c-1.168,0.319 -1.857,1.524 -1.539,2.692l0.681,2.497c0.318,1.169 1.524,1.858 2.692,1.539z" fill="#ffffff"></path><path d="M51.439,57.061c-1.887,0 -3.62,-1.256 -4.141,-3.161l-2.015,-6.723c-0.158,-0.529 0.142,-1.087 0.671,-1.245c0.53,-0.159 1.087,0.142 1.245,0.671l2.021,6.746c0.339,1.241 1.603,1.964 2.818,1.631c1.218,-0.332 1.938,-1.593 1.606,-2.812l-2.015,-6.722c-0.158,-0.529 0.142,-1.087 0.671,-1.245c0.531,-0.159 1.086,0.142 1.245,0.671l2.021,6.746c0.629,2.307 -0.722,4.669 -3.004,5.291c-0.373,0.103 -0.75,0.152 -1.123,0.152z" fill="#ffffff"></path><path d="M37.029,55.97c-0.763,0 -1.517,-0.199 -2.198,-0.588c-1.081,-0.617 -1.855,-1.635 -2.183,-2.865l-0.609,-2.114c-0.153,-0.531 0.153,-1.085 0.684,-1.238c0.537,-0.151 1.086,0.154 1.238,0.684l0.615,2.135c0.194,0.729 0.635,1.312 1.246,1.662c0.574,0.328 1.24,0.412 1.872,0.232c0.79,-0.222 1.415,-0.812 1.716,-1.616c0.1,-0.267 0.308,-0.479 0.572,-0.582c0.266,-0.104 0.562,-0.088 0.815,0.039c0.528,0.268 1.137,0.324 1.716,0.16c1.365,-0.383 2.168,-1.86 1.793,-3.295l-0.45,-1.555c-0.153,-0.531 0.152,-1.086 0.683,-1.239c0.533,-0.149 1.086,0.153 1.239,0.683l0.457,1.58c0.655,2.51 -0.774,5.078 -3.18,5.751c-0.731,0.207 -1.492,0.219 -2.212,0.048c-0.601,0.952 -1.514,1.644 -2.607,1.952c-0.399,0.11 -0.804,0.166 -1.207,0.166z" fill="#ffffff"></path><path d="M22.164,18.035c-1.408,0 -2.696,-0.935 -3.083,-2.352v0c-0.225,-0.823 -0.114,-1.683 0.309,-2.423c0.423,-0.74 1.109,-1.271 1.933,-1.496l9.488,-2.678c0.831,-0.23 1.692,-0.118 2.432,0.306c0.74,0.423 1.271,1.108 1.496,1.932c0.225,0.822 0.115,1.684 -0.308,2.424c-0.424,0.74 -1.109,1.271 -1.933,1.496l-9.488,2.678c-0.282,0.076 -0.567,0.113 -0.846,0.113zM21.011,15.158c0.173,0.633 0.831,1.007 1.465,0.836l9.488,-2.678c0.315,-0.087 0.572,-0.285 0.73,-0.562c0.157,-0.276 0.198,-0.598 0.114,-0.905c-0.084,-0.307 -0.282,-0.563 -0.559,-0.722c-0.275,-0.157 -0.596,-0.199 -0.905,-0.115l-9.488,2.678c-0.316,0.087 -0.572,0.285 -0.73,0.562c-0.158,0.277 -0.199,0.599 -0.115,0.906z" fill="#ffffff"></path><path d="M25,51l-0.63,2.11c0.19,0.6 0.61,1.11 1.19,1.42c0.58,0.3 1.24,0.36 1.86,0.17c1.29,-0.4 2.01,-1.77 1.61,-3.06l-0.45,-1.59c-0.31,-1.07 0.31,-2.17 1.37,-2.47c1.06,-0.31 2.17,0.31 2.47,1.37l0.44,1.55c1.04,3.35 -0.86,6.97 -4.25,8.02c-0.63,0.2 -1.28,0.29 -1.92,0.29c-1.03,0 -2.06,-0.25 -2.99,-0.74c-1.53,-0.8 -2.65,-2.15 -3.16,-3.79l-2.54,-1.28" fill-opacity="0" fill="#008fef"></path><path d="M26.69,59.81c-1.199,0 -2.394,-0.296 -3.456,-0.854c-1.762,-0.922 -3.059,-2.477 -3.649,-4.378l-0.335,-0.929c-0.188,-0.52 0.082,-1.093 0.602,-1.279c0.522,-0.192 1.093,0.083 1.279,0.602l0.35,0.971c0.446,1.432 1.395,2.568 2.684,3.243c1.279,0.673 2.849,0.792 4.144,0.382c1.389,-0.431 2.524,-1.375 3.205,-2.661c0.678,-1.283 0.817,-2.742 0.393,-4.108l-0.447,-1.573c-0.073,-0.258 -0.242,-0.471 -0.476,-0.6c-0.23,-0.127 -0.497,-0.16 -0.751,-0.084c-0.267,0.075 -0.479,0.243 -0.608,0.476c-0.128,0.23 -0.157,0.499 -0.083,0.755l0.452,1.597c0.555,1.791 -0.463,3.726 -2.275,4.288c-0.88,0.267 -1.805,0.183 -2.616,-0.236c-0.82,-0.439 -1.413,-1.15 -1.684,-2.007l-0.284,-0.843c-0.177,-0.523 0.104,-1.091 0.628,-1.267c0.524,-0.179 1.091,0.104 1.267,0.628l0.29,0.86c0.119,0.375 0.371,0.674 0.715,0.858c0.332,0.172 0.726,0.206 1.096,0.095c0.756,-0.235 1.183,-1.047 0.947,-1.809l-0.457,-1.613c-0.223,-0.766 -0.132,-1.576 0.256,-2.277c0.39,-0.701 1.03,-1.208 1.804,-1.427c0.758,-0.225 1.568,-0.133 2.272,0.256c0.704,0.39 1.213,1.03 1.432,1.804l0.44,1.549c0.576,1.855 0.387,3.856 -0.542,5.613c-0.929,1.758 -2.482,3.049 -4.374,3.635c-0.699,0.219 -1.447,0.333 -2.219,0.333z" fill="#ffffff"></path><path d="M16.51,55.06c-1.375,0 -2.732,-0.359 -3.958,-1.062c-2.261,-1.292 -3.705,-3.723 -3.859,-6.501l-2.448,-28.29c-0.171,-2.919 1.659,-5.501 4.448,-6.307c1.625,-0.484 3.485,-0.239 4.965,0.681l5.31,3.301l11.995,-3.273l2.433,-5.173c0.794,-1.694 2.295,-2.922 4.119,-3.366l0.314,-0.078c2.771,-0.673 5.622,0.614 6.938,3.126l12.788,25.435c1.414,2.688 1.287,5.838 -0.34,8.206c-1.083,1.561 -2.675,2.688 -4.482,3.178l-21.669,5.91c-0.527,0.148 -1.082,-0.168 -1.228,-0.702c-0.146,-0.532 0.169,-1.082 0.702,-1.228l21.67,-5.91c1.355,-0.367 2.549,-1.215 3.361,-2.385c1.185,-1.724 1.267,-4.141 0.207,-6.154l-12.79,-25.439c-0.881,-1.683 -2.806,-2.548 -4.681,-2.098l-0.313,0.079c-1.237,0.302 -2.251,1.13 -2.787,2.274l-2.63,5.592c-0.125,0.265 -0.359,0.462 -0.642,0.539l-12.86,3.51c-0.271,0.072 -0.556,0.032 -0.792,-0.115l-5.68,-3.53c-0.997,-0.621 -2.239,-0.792 -3.346,-0.461c-1.894,0.547 -3.131,2.291 -3.018,4.243l2.448,28.293c0.119,2.129 1.188,3.952 2.859,4.907c1.391,0.799 3.007,1.008 4.551,0.583l1.83,-0.5c0.529,-0.139 1.082,0.168 1.229,0.701c0.146,0.533 -0.169,1.083 -0.701,1.229l-1.83,0.5c-0.698,0.19 -1.408,0.285 -2.113,0.285z" fill="#ffffff"></path><path d="M24.079,53.25c-0.439,0 -0.843,-0.293 -0.964,-0.737c-0.145,-0.533 0.17,-1.083 0.702,-1.228l4.67,-1.27c0.531,-0.149 1.083,0.17 1.228,0.702c0.145,0.533 -0.17,1.083 -0.702,1.228l-4.67,1.27c-0.088,0.024 -0.177,0.035 -0.264,0.035z" fill="#ffffff"></path><g fill="#ffffff"><path d="M35.65,18.386c-0.533,0.145 -0.847,0.695 -0.702,1.228l0.526,1.93c0.145,0.533 0.695,0.847 1.228,0.702c0.533,-0.145 0.847,-0.695 0.702,-1.228l-0.526,-1.93c-0.145,-0.533 -0.695,-0.848 -1.228,-0.702zM30.826,19.701c-0.533,0.145 -0.847,0.695 -0.702,1.228l0.526,1.93c0.145,0.533 0.695,0.847 1.228,0.702c0.533,-0.145 0.847,-0.695 0.702,-1.228l-0.526,-1.93c-0.145,-0.533 -0.695,-0.848 -1.228,-0.702zM26.002,21.016c-0.533,0.145 -0.847,0.695 -0.702,1.228l0.526,1.93c0.145,0.533 0.695,0.847 1.228,0.702c0.533,-0.145 0.847,-0.695 0.702,-1.228l-0.526,-1.93c-0.145,-0.533 -0.695,-0.847 -1.228,-0.702zM22.23,26.19c0.533,-0.145 0.847,-0.695 0.702,-1.228l-0.526,-1.93c-0.145,-0.533 -0.695,-0.847 -1.228,-0.702c-0.533,0.145 -0.847,0.695 -0.702,1.228l0.526,1.93c0.146,0.533 0.696,0.847 1.228,0.702z"></path></g></g></g></svg>