<!DOCTYPE svg PUBLIC "-//W3C//DTD SVG 1.1//EN" "http://www.w3.org/Graphics/SVG/1.1/DTD/svg11.dtd">
<!-- Uploaded to: SVG Repo, www.svgrepo.com, Transformed by: SVG Repo Mixer Tools -->
<svg fill="#ffffff" height="64px" width="64px" version="1.1" id="Layer_1" xmlns="http://www.w3.org/2000/svg" xmlns:xlink="http://www.w3.org/1999/xlink" viewBox="0 0 484.312 484.312" xml:space="preserve" stroke="#ffffff">
<g id="SVGRepo_bgCarrier" stroke-width="0"/>
<g id="SVGRepo_tracerCarrier" stroke-linecap="round" stroke-linejoin="round"/>
<g id="SVGRepo_iconCarrier"> <path d="M400.136,157.98C400.136,70.87,329.267,0,242.156,0S84.175,70.87,84.175,157.98c0,56.344,29.655,105.884,74.17,133.856 v192.476l87.581-43.955l87.581,43.955V286.804C373.802,258.147,400.136,211.081,400.136,157.98z M114.175,157.98 c0-70.568,57.412-127.98,127.98-127.98s127.98,57.412,127.98,127.98c0,70.569-57.412,127.98-127.98,127.98 S114.175,228.549,114.175,157.98z M303.507,435.688l-57.581-28.898l-57.581,28.898v-129.17c16.803,6.106,34.924,9.442,53.81,9.442 c21.746,0,42.479-4.417,61.351-12.4V435.688z"/> </g>
</svg>